<svg width="212" height="50" viewBox="0 0 212 50" fill="none" xmlns="http://www.w3.org/2000/svg">
<g clip-path="url(#clip0_2484_23021)">
<path d="M117.25 12.769L108.212 37.4067H114.569L115.594 34.3515H125.174L126.199 37.4067H132.407L123.518 12.769H117.25ZM117.161 29.6609L120.384 19.9273L123.607 29.6609H117.161Z" fill="#342E51"/>
<path d="M143.82 31.8445C139.868 31.8445 137.01 28.6718 137.01 25.078C137.01 21.4842 139.868 18.3114 143.82 18.3114C147.348 18.3114 150.059 20.7987 150.542 23.8833H156.662C156.208 17.5672 150.601 12.2695 143.82 12.2695C136.586 12.2695 130.919 18.2233 130.919 25.0878C130.919 31.9523 136.586 37.8767 143.82 37.8767C150.63 37.8767 156.238 32.579 156.691 26.2335H150.542C150.059 29.3475 147.378 31.8641 143.82 31.8641V31.8445Z" fill="#342E51"/>
<path d="M176.264 22.6203C176.264 17.4989 173.219 12.7397 165.019 12.7397H158.81V37.446H164.871V32.54H165.896C166.556 32.54 167.197 32.5106 167.769 32.4225L169.848 37.4264H176.865L173.1 30.18C175.269 28.3195 176.264 25.5384 176.264 22.6399V22.6203ZM166.083 26.6645H164.881V18.6054H166.083C168.853 18.6054 170.331 20.2799 170.331 22.6203C170.331 24.9607 168.882 26.6645 166.083 26.6645Z" fill="#342E51"/>
<path d="M179.043 37.4066H193.206V31.6879H185.095V27.203H191.107V22.7083H185.095V18.4583H193.206V12.7983H179.043V37.4066Z" fill="#342E51"/>
<path d="M204.194 22.0522C202.351 21.4255 200.824 20.9162 200.824 19.3886C200.824 18.3115 201.701 17.4693 203.051 17.4693C204.677 17.4693 205.466 18.6052 205.525 20.0447L211.073 20.0741C211.044 15.3737 207.88 12.2598 203.061 12.2598C198.567 12.2598 195.108 15.0702 195.108 19.3005C195.108 23.5308 197.552 25.2249 201.858 26.7231C204.51 27.6534 205.899 28.3095 205.899 29.9546C205.899 31.3647 204.845 32.3832 203.159 32.3832C201.198 32.3832 200.232 31.0024 200.173 29.3867H194.24C194.27 34.3906 197.857 37.7983 203.189 37.7983C208.196 37.7983 212.019 34.9194 212.019 30.0428C212.019 24.7157 208.432 23.4525 204.214 22.0522H204.194Z" fill="#342E51"/>
<path d="M97.1448 12.0249C89.6449 12.0249 84.2441 17.9787 84.2441 24.8138C84.2441 25.7637 84.3624 26.6939 84.5595 27.5948H81.4452V22.444H75.867V27.5948H71.2941L76.478 12.7887H70.8309L63.6167 32.2169V32.4617H75.8768V37.6418H81.455V32.4617H86.7868C89.0732 35.5561 92.7493 37.6223 97.1547 37.6223C104.625 37.6223 110.026 31.6685 110.026 24.804C110.026 17.9395 104.635 12.0151 97.1547 12.0151L97.1448 12.0249ZM97.1448 31.5706C93.1928 31.5706 90.3347 28.486 90.3347 24.804C90.3347 21.1221 93.1928 18.0668 97.1448 18.0668C101.097 18.0668 103.925 21.1221 103.925 24.804C103.925 28.486 101.067 31.5706 97.1448 31.5706Z" fill="#342E51"/>
<path d="M30.2563 21.7881C34.4744 21.7881 37.5296 18.4195 37.5296 14.5515C37.5296 10.6835 34.4843 7.32471 30.2563 7.32471C26.0283 7.32471 22.9731 10.6933 22.9731 14.5515C22.9731 18.4097 26.0185 21.7881 30.2563 21.7881ZM30.2563 10.7423C32.4738 10.7423 34.0901 12.4657 34.0901 14.5515C34.0901 16.6373 32.4738 18.3705 30.2563 18.3705C28.0388 18.3705 26.4127 16.6275 26.4127 14.5515C26.4127 12.4755 28.029 10.7423 30.2563 10.7423Z" fill="#6C2DB7"/>
<path d="M21.82 20.2016H18.0257V23.6974H14.9114L18.4396 13.6309H14.596L9.68799 26.8408V27.0073H18.0257V32.7162H21.82V27.0073H38.8699V23.6974H21.82V20.2016Z" fill="#6C2DB7"/>
<path d="M28.5017 29.1812L23.3276 43.292H26.9741L27.5655 41.5392H33.0549L33.6463 43.292H37.2041L32.1088 29.1812H28.5214H28.5017ZM28.4525 38.856L30.2954 33.2842L32.1384 38.856H28.4426H28.4525Z" fill="#6C2DB7"/>
<path d="M4.20827 4.18135H11.0676V0H0V50H11.0676V45.8284H4.20827V4.18135Z" fill="#6C2DB7"/>
<path d="M39.5005 0V4.18135H46.3697V45.8284H39.5005V50H50.5681V0H39.5005Z" fill="#6C2DB7"/>
</g>
<defs>
<clipPath id="clip0_2484_23021">
<rect width="212" height="50" fill="white"/>
</clipPath>
</defs>
</svg>
