<svg width="16" height="16" viewBox="0 0 16 16" fill="none" xmlns="http://www.w3.org/2000/svg">
<path d="M15.75 8C15.75 12.2812 12.25 15.75 8 15.75C3.71875 15.75 0.25 12.2812 0.25 8C0.25 3.75 3.71875 0.25 8 0.25C12.25 0.25 15.75 3.75 15.75 8ZM11.3125 6.90625C11.4688 5.875 10.6875 5.3125 9.59375 4.96875L9.9375 3.5625L9.09375 3.34375L8.75 4.71875C8.53125 4.65625 8.3125 4.59375 8.09375 4.5625L8.4375 3.1875L7.5625 2.96875L7.21875 4.375C7.03125 4.3125 6.84375 4.28125 6.6875 4.25V4.21875L5.5 3.9375L5.28125 4.84375L5.90625 5C6.25 5.09375 6.3125 5.3125 6.28125 5.5L5.90625 7.09375C5.9375 7.09375 5.96875 7.09375 6 7.125C5.96875 7.09375 5.9375 7.09375 5.90625 7.09375L5.34375 9.3125C5.3125 9.4375 5.1875 9.59375 4.9375 9.53125C4.96875 9.53125 4.34375 9.375 4.34375 9.375L3.90625 10.3438L5.03125 10.625C5.21875 10.6562 5.4375 10.7188 5.625 10.7812L5.28125 12.1875L6.125 12.4062L6.46875 11C6.6875 11.0625 6.9375 11.125 7.15625 11.1875L6.8125 12.5625L7.65625 12.7812L8 11.375C9.46875 11.6562 10.5312 11.5312 11 10.2188C11.375 9.15625 11 8.5625 10.2188 8.15625C10.7812 8.03125 11.1875 7.65625 11.3125 6.90625ZM9.375 9.625C9.09375 10.6875 7.3125 10.125 6.75 9.96875L7.21875 8.09375C7.78125 8.25 9.625 8.53125 9.375 9.625ZM9.625 6.90625C9.375 7.84375 7.90625 7.375 7.4375 7.25L7.84375 5.5625C8.34375 5.65625 9.875 5.90625 9.625 6.90625Z" fill="#342E51"/>
</svg>
