<svg width="40" height="40" viewBox="0 0 40 40" fill="none" xmlns="http://www.w3.org/2000/svg">
<path d="M34 20C34 27.7339 27.6774 34 20 34C12.2661 34 6 27.7339 6 20C6 12.3226 12.2661 6 20 6C27.6774 6 34 12.3226 34 20ZM25.9839 18.0242C26.2661 16.1613 24.8548 15.1452 22.879 14.5242L23.5 11.9839L21.9758 11.5887L21.3548 14.0726C20.9597 13.9597 20.5645 13.8468 20.1694 13.7903L20.7903 11.3065L19.2097 10.9113L18.5887 13.4516C18.25 13.3387 17.9113 13.2823 17.629 13.2258V13.1694L15.4839 12.6613L15.0887 14.2984L16.2177 14.5806C16.8387 14.75 16.9516 15.1452 16.8952 15.4839L16.2177 18.3629L15.2016 22.371C15.1452 22.5968 14.9194 22.879 14.4677 22.7661C14.5242 22.7661 13.3952 22.4839 13.3952 22.4839L12.6048 24.2339L14.6371 24.7419C14.9758 24.7984 15.371 24.9113 15.7097 25.0242L15.0887 27.5645L16.6129 27.9597L17.2339 25.4194C17.629 25.5323 18.0806 25.6452 18.4758 25.7581L17.8548 28.2419L19.379 28.6371L20 26.0968C22.6532 26.6048 24.5726 26.379 25.4194 24.0081C26.0968 22.0887 25.4194 21.0161 24.0081 20.2823C25.0242 20.0565 25.7581 19.379 25.9839 18.0242ZM22.4839 22.9355C21.9758 24.8548 18.7581 23.8387 17.7419 23.5565L18.5887 20.1694C19.6048 20.4516 22.9355 20.9597 22.4839 22.9355ZM22.9355 18.0242C22.4839 19.7177 19.8306 18.871 18.9839 18.6452L19.7177 15.5968C20.621 15.7661 23.3871 16.2177 22.9355 18.0242Z" fill="#FF7F06"/>
</svg>
