<svg width="314" height="77" viewBox="0 0 314 77" fill="none" xmlns="http://www.w3.org/2000/svg">
<path d="M168.976 44.8767H178.198C178.294 47.4083 179.794 49.5569 182.836 49.5569C185.453 49.5569 187.091 47.9614 187.091 45.7596C187.091 43.1855 184.942 42.1537 180.815 40.7071C174.125 38.367 170.327 35.4206 170.327 29.1023C170.327 22.7841 175.709 18.1039 182.687 18.1039C190.175 18.1039 195.09 22.9755 195.143 30.3256L186.527 30.283C186.431 28.0387 185.219 26.2517 182.687 26.2517C180.581 26.2517 179.22 27.56 179.22 29.2512C179.22 31.6445 181.602 32.4317 184.463 33.4209C191.016 35.6227 196.589 37.5905 196.589 45.9191C196.589 53.5457 190.643 58.0451 182.879 58.0451C174.593 58.0451 169.019 52.7054 168.976 44.8873V44.8767Z" fill="#342E51"/>
<path d="M196.962 18.891H206.981L214.565 44.2598L222.011 18.891H231.935L228.893 27.9216L233.85 44.2598L241.243 18.891H251.209L238.902 57.4175H229.117L224.341 40.8985L219.235 57.4175H209.449L196.951 18.891H196.962Z" fill="#342E51"/>
<path d="M272.409 52.6416H257.528L255.932 57.4175H246.051L260.091 18.891H269.824L283.631 57.4175H273.994L272.398 52.6416H272.409ZM269.973 45.2915L264.963 30.0809L259.953 45.2915H269.973Z" fill="#342E51"/>
<path d="M286.119 18.8484H295.767C308.499 18.8484 313.222 26.2942 313.222 34.293C313.222 42.2919 308.308 49.7908 296.937 49.7908H295.533V57.4174H286.119V18.8484ZM297.405 40.6113C301.755 40.6113 304.01 37.8989 304.01 34.293C304.01 30.6871 301.713 28.0173 297.405 28.0173H295.533V40.6113H297.405Z" fill="#342E51"/>
<path d="M147.448 17.5826C136.055 17.5826 127.876 26.6877 127.876 37.1118C127.876 38.569 128.046 39.9837 128.354 41.3665H123.621V33.5059H115.154V41.3665H108.208L116.069 18.7527H107.496L96.5398 48.4187V48.8017H115.144V56.7261H123.61V48.8017H131.694C135.162 53.5244 140.736 56.6942 147.437 56.6942C158.776 56.6942 166.966 47.5891 166.966 37.1224C166.966 26.6558 158.776 17.5933 147.437 17.5933L147.448 17.5826ZM147.448 47.4508C141.459 47.4508 137.109 42.7387 137.109 37.1118C137.109 31.4849 141.448 26.826 147.448 26.826C153.447 26.826 157.733 31.4956 157.733 37.1118C157.733 42.728 153.393 47.4508 147.448 47.4508Z" fill="#342E51"/>
<path d="M48.3441 53.2584L45.6742 52.5138C44.3659 52.1628 43.515 51.6841 43.515 50.5247C43.515 49.3653 44.3127 48.6633 45.77 48.6633C47.2272 48.6633 48.0462 49.8227 48.1101 51.1204H52.7052C52.5882 47.5039 49.9502 44.5787 45.8019 44.5787C41.6535 44.5787 38.5795 46.8869 38.5795 51.0353C38.5795 54.2901 40.7707 55.9814 43.8766 56.8111L46.6316 57.5556C47.9612 57.9066 48.6419 58.6512 48.6419 59.7787C48.6419 61.0232 47.5463 62.055 46.004 62.055C44.0468 62.055 43.2171 60.8743 43.047 59.3639H38.2498C38.6008 63.4165 41.2706 66.1502 45.887 66.1502C49.6524 66.1502 53.588 63.6612 53.588 59.3639C53.588 55.8963 51.6309 54.1838 48.3441 53.2584Z" fill="#6C2DB6"/>
<path d="M45.9297 33.2826C52.3331 33.2826 56.9601 28.145 56.9601 22.2203C56.9601 16.2956 52.3331 11.1899 45.9297 11.1899C39.5264 11.1899 34.8674 16.3275 34.8674 22.2203C34.8674 28.1131 39.4944 33.2826 45.9297 33.2826ZM45.9297 16.4126C49.2909 16.4126 51.748 19.0505 51.748 22.2309C51.748 25.4113 49.2909 28.0705 45.9297 28.0705C42.5685 28.0705 40.0901 25.4113 40.0901 22.2309C40.0901 19.0505 42.5472 16.4126 45.9297 16.4126Z" fill="#6C2DB6"/>
<path d="M33.1122 30.8574H27.3577V36.2077H22.635L27.9853 20.8269H22.1563L14.7 41.0049V41.2602H27.3577V49.9717H33.1122V41.2602H58.9916V36.2077H33.1122V30.8574Z" fill="#6C2DB6"/>
<path d="M6.38208 6.38208H16.8061V0H0V76.3829H16.8061V70.0008H6.38208V6.38208Z" fill="#6C2DB6"/>
<path d="M59.9597 0V6.38208H70.3731V70.0008H59.9597V76.3829H76.7552V0H59.9597Z" fill="#6C2DB6"/>
</svg>
