<svg width="209" height="51" viewBox="0 0 209 51" fill="none" xmlns="http://www.w3.org/2000/svg">
<g clip-path="url(#clip0_53_4769)">
<path d="M112.631 29.956H118.778C118.842 31.6434 119.842 33.0756 121.87 33.0756C123.614 33.0756 124.706 32.0121 124.706 30.5445C124.706 28.8287 123.273 28.141 120.522 27.1768C116.063 25.617 113.532 23.6531 113.532 19.4416C113.532 15.2302 117.119 12.1106 121.77 12.1106C126.762 12.1106 130.037 15.3578 130.073 20.257L124.33 20.2286C124.266 18.7326 123.458 17.5415 121.77 17.5415C120.366 17.5415 119.459 18.4136 119.459 19.5409C119.459 21.1361 121.047 21.6608 122.954 22.3201C127.322 23.7878 131.037 25.0994 131.037 30.6509C131.037 35.7344 127.074 38.7334 121.898 38.7334C116.375 38.7334 112.66 35.1742 112.631 29.9631V29.956Z" fill="#342E51"/>
<path d="M131.285 12.6351H137.964L143.019 29.5447L147.982 12.6351H154.597L152.569 18.6545L155.873 29.5447L160.8 12.6351H167.444L159.241 38.315H152.718L149.534 27.3043L146.131 38.315H139.609L131.278 12.6351H131.285Z" fill="#342E51"/>
<path d="M181.574 35.1316H171.655L170.592 38.315H164.005L173.364 12.6351H179.851L189.054 38.315H182.631L181.567 35.1316H181.574ZM179.951 30.2324L176.611 20.0938L173.272 30.2324H179.951Z" fill="#342E51"/>
<path d="M190.713 12.6068H197.144C205.631 12.6068 208.779 17.5698 208.779 22.9014C208.779 28.2331 205.503 33.2315 197.924 33.2315H196.988V38.315H190.713V12.6068ZM198.236 27.1129C201.136 27.1129 202.639 25.3049 202.639 22.9014C202.639 20.4979 201.107 18.7184 198.236 18.7184H196.988V27.1129H198.236Z" fill="#342E51"/>
<path d="M98.2812 11.7633C90.6878 11.7633 85.2357 17.8323 85.2357 24.7805C85.2357 25.7518 85.3491 26.6948 85.5547 27.6165H82.3997V22.377H76.7561V27.6165H72.1263L77.3658 12.5432H71.6513L64.3486 32.3171V32.5724H76.749V37.8544H82.3926V32.5724H87.781C90.0923 35.7203 93.8074 37.8331 98.2741 37.8331C105.832 37.8331 111.291 31.7641 111.291 24.7876C111.291 17.811 105.832 11.7704 98.2741 11.7704L98.2812 11.7633ZM98.2812 31.6719C94.2895 31.6719 91.3897 28.5311 91.3897 24.7805C91.3897 21.0299 94.2825 17.9245 98.2812 17.9245C102.28 17.9245 105.137 21.037 105.137 24.7805C105.137 28.524 102.244 31.6719 98.2812 31.6719Z" fill="#342E51"/>
<path d="M32.2235 35.543L30.4439 35.0467C29.5718 34.8127 29.0046 34.4937 29.0046 33.7209C29.0046 32.9481 29.5364 32.4801 30.5077 32.4801C31.479 32.4801 32.025 33.2529 32.0675 34.1179H35.1304C35.0524 31.7073 33.2941 29.7576 30.529 29.7576C27.7639 29.7576 25.7149 31.2961 25.7149 34.0612C25.7149 36.2307 27.1754 37.358 29.2457 37.911L31.082 38.4073C31.9683 38.6413 32.422 39.1376 32.422 39.8891C32.422 40.7187 31.6917 41.4064 30.6637 41.4064C29.3591 41.4064 28.8061 40.6194 28.6927 39.6126H25.4951C25.7291 42.3139 27.5087 44.136 30.5857 44.136C33.0956 44.136 35.7188 42.477 35.7188 39.6126C35.7188 37.3013 34.4143 36.1598 32.2235 35.543Z" fill="#6C2DB6"/>
<path d="M30.6143 22.2281C34.8824 22.2281 37.9666 18.8036 37.9666 14.8545C37.9666 10.9054 34.8824 7.5022 30.6143 7.5022C26.3461 7.5022 23.2407 10.9266 23.2407 14.8545C23.2407 18.7823 26.3249 22.2281 30.6143 22.2281ZM30.6143 10.9834C32.8547 10.9834 34.4925 12.7417 34.4925 14.8616C34.4925 16.9815 32.8547 18.754 30.6143 18.754C28.3739 18.754 26.7219 16.9815 26.7219 14.8616C26.7219 12.7417 28.3597 10.9834 30.6143 10.9834Z" fill="#6C2DB6"/>
<path d="M22.0711 20.6115H18.2354V24.1777H15.0875L18.6537 13.9257H14.7684L9.79834 27.3753V27.5455H18.2354V33.3522H22.0711V27.5455H39.3209V24.1777H22.0711V20.6115Z" fill="#6C2DB6"/>
<path d="M4.25398 4.29744H11.2021V0.043457H0V50.9565H11.2021V46.7025H4.25398V4.29744Z" fill="#6C2DB6"/>
<path d="M39.9663 0.043457V4.29744H46.9074V46.7025H39.9663V50.9565H51.1614V0.043457H39.9663Z" fill="#6C2DB6"/>
</g>
<defs>
<clipPath id="clip0_53_4769">
<rect width="208.778" height="50.913" fill="white" transform="translate(0 0.043457)"/>
</clipPath>
</defs>
</svg>
