<svg width="28" height="29" viewBox="0 0 28 29" fill="none" xmlns="http://www.w3.org/2000/svg">
<path d="M28 4.92456V24.9246C28 27.1746 26.1875 28.9246 24 28.9246H4C1.75 28.9246 0 27.1746 0 24.9246V4.92456C0 2.73706 1.75 0.924561 4 0.924561H24C26.1875 0.924561 28 2.73706 28 4.92456ZM16.5625 24.4246C16.5625 24.6746 16.75 25.0496 17.3125 24.9246C21.4375 23.5496 24.25 19.6121 24.25 15.0496C24.25 9.29956 19.5625 4.92456 13.8125 4.92456C8.125 4.92456 3.6875 9.29956 3.6875 15.0496C3.6875 19.6121 6.625 23.5496 10.75 24.9246C11.25 25.0496 11.4375 24.6746 11.4375 24.4246C11.4375 24.3621 11.4375 24.1121 11.4375 23.7996C11.4375 23.2371 11.4375 22.4871 11.4375 21.9246C11.4375 21.9246 8.5 22.5496 7.9375 20.6746C7.9375 20.6746 7.4375 19.4871 6.75 19.1746C6.75 19.1746 5.8125 18.4871 6.8125 18.4871C6.8125 18.4871 7.875 18.6121 8.4375 19.6121C9.3125 21.1746 10.875 20.7371 11.4375 20.4246C11.5625 19.7996 11.8125 19.2996 12.125 19.0496C9.8125 18.7996 7.5 18.4871 7.5 14.4871C7.5 13.3621 7.8125 12.7996 8.4375 12.0496C8.3125 11.7996 8 10.6746 8.5625 9.23706C9.4375 8.98706 11.4375 10.3621 11.4375 10.3621C12.25 10.1121 13.125 9.98706 14 9.98706C14.875 9.98706 15.8125 10.1121 16.625 10.3621C16.625 10.3621 18.625 8.98706 19.4375 9.23706C20.0625 10.6746 19.6875 11.7996 19.5625 12.0496C20.25 12.7996 20.625 13.3621 20.625 14.4871C20.625 18.4871 18.1875 18.7996 15.875 19.0496C16.25 19.3621 16.625 19.9871 16.625 20.9871C16.625 21.9246 16.625 22.9871 16.5625 23.7371C16.5625 24.0496 16.5625 24.2996 16.5625 24.4246ZM10.9375 20.9871C10.9375 21.1121 11.0625 21.1121 11.1875 21.1121C11.3125 21.1121 11.375 20.9871 11.375 20.9246C11.375 20.8621 11.25 20.7996 11.125 20.7996C11 20.8621 10.9375 20.9246 10.9375 20.9871ZM10.375 21.2371C10.5 21.2371 10.5625 21.1121 10.5625 21.0496C10.5625 20.9871 10.4375 20.9246 10.375 20.9246C10.25 20.9246 10.125 20.9871 10.125 21.0496C10.125 21.1746 10.25 21.2371 10.375 21.2371ZM9.4375 21.0496C9.5625 21.1121 9.6875 21.0496 9.75 20.9871C9.75 20.9246 9.6875 20.7996 9.5625 20.7996C9.4375 20.7371 9.3125 20.7996 9.3125 20.8621C9.25 20.9246 9.375 21.0496 9.4375 21.0496ZM8.6875 20.6121C8.75 20.7371 8.875 20.7371 8.9375 20.6746C9 20.6121 9 20.4871 8.875 20.4246C8.8125 20.2996 8.6875 20.2996 8.625 20.3621C8.5625 20.4246 8.5625 20.5496 8.6875 20.6121ZM8.125 19.9871C8.25 20.1121 8.3125 20.1121 8.375 20.1121C8.4375 20.0496 8.4375 19.9246 8.375 19.7996C8.3125 19.7371 8.25 19.6746 8.125 19.7371C8.0625 19.7996 8.0625 19.9246 8.125 19.9871ZM7.75 19.4246C7.8125 19.4871 7.9375 19.5496 8 19.4871C8.0625 19.4246 8 19.3621 7.9375 19.2371C7.875 19.1746 7.8125 19.1746 7.75 19.2371C7.6875 19.2371 7.6875 19.3621 7.75 19.4246ZM7.375 19.0496C7.4375 19.1121 7.5625 19.0496 7.5625 18.9871C7.5625 18.9871 7.5625 18.9246 7.4375 18.8621C7.375 18.7996 7.3125 18.8621 7.3125 18.8621C7.25 18.9246 7.3125 18.9871 7.375 19.0496Z" fill="url(#paint0_linear_295_390)"/>
<defs>
<linearGradient id="paint0_linear_295_390" x1="0" y1="0.924561" x2="12.868" y2="34.6912" gradientUnits="userSpaceOnUse">
<stop stop-color="#6C2DB8"/>
<stop offset="1" stop-color="#4D73D8"/>
</linearGradient>
</defs>
</svg>
