<?xml version="1.0" encoding="UTF-8"?>
<svg id="Layer_1" xmlns="http://www.w3.org/2000/svg" xmlns:xlink="http://www.w3.org/1999/xlink" version="1.1" viewBox="0 0 28 28">
  <!-- Generator: Adobe Illustrator 29.1.0, SVG Export Plug-In . SVG Version: 2.1.0 Build 142)  -->
  <defs>
    <style>
      .st0 {
        fill: url(#linear-gradient);
      }
    </style>
    <linearGradient id="linear-gradient" x1="7.6" y1="31" x2="20.4" y2="-2.7" gradientTransform="translate(0 28.2) scale(1 -1)" gradientUnits="userSpaceOnUse">
      <stop offset="0" stop-color="#6c2db8"/>
      <stop offset="1" stop-color="#4d73d8"/>
    </linearGradient>
  </defs>
  <path class="st0" d="M28,4v20c0,2.2-1.8,4-4,4H4c-2.2,0-4-1.8-4-4V4C0,1.8,1.8,0,4,0h20c2.2,0,4,1.8,4,4ZM16.6,23.5c0,.2.2.6.8.5,4.1-1.4,6.9-5.3,6.9-9.9S19.6,4,13.8,4,3.7,8.4,3.7,14.1s2.9,8.5,7.1,9.9c.5.1.7-.2.7-.5v-2.5s-2.9.6-3.5-1.2c0,0-.5-1.2-1.2-1.5,0,0-.9-.7,0-.7,0,0,1.1.1,1.6,1.1.9,1.6,2.4,1.1,3,.8.1-.6.4-1.1.7-1.4-2.3-.2-4.6-.6-4.6-4.6s.3-1.7.9-2.4c-.1-.2-.4-1.4.1-2.8.9-.2,2.9,1.1,2.9,1.1.8-.2,1.7-.4,2.6-.4s1.8.1,2.6.4c0,0,2-1.4,2.8-1.1.6,1.4.2,2.6.1,2.8.7.8,1.1,1.3,1.1,2.4,0,4-2.4,4.3-4.8,4.6.4.3.8.9.8,1.9s0,2,0,2.8v.7ZM10.9,20.1c0,.1.1.1.2.1s.2-.1.2-.2-.1-.1-.2-.1c-.1,0-.2.1-.2.2ZM10.4,20.3c.1,0,.2-.1.2-.2s-.1-.1-.2-.1c-.1,0-.2,0-.2.1,0,.1.1.2.2.2ZM9.4,20.1c.1,0,.2,0,.3,0,0,0,0-.2-.2-.2-.1,0-.2,0-.2,0,0,0,0,.2.1.2ZM8.7,19.7c0,.1.2.1.2,0s0-.2,0-.2c0-.1-.2-.1-.2,0s0,.2,0,.2ZM8.1,19.1c.1.1.2.1.2.1,0,0,0-.2,0-.3,0,0-.1-.1-.2,0,0,0,0,.2,0,.2ZM7.8,18.5c0,0,.2.1.2,0s0-.1,0-.2c0,0-.1,0-.2,0,0,0,0,.1,0,.2ZM7.4,18.1c0,0,.2,0,.2,0,0,0,0,0-.1-.1,0,0-.1,0-.1,0,0,0,0,.1,0,.2Z"/>
</svg>