<svg width="12" height="16" viewBox="0 0 12 16" fill="none" xmlns="http://www.w3.org/2000/svg">
<path d="M9.03125 0C9.625 0 10.0625 0.59375 9.90625 1.15625L8.21875 7H10.9062C11.5 7 11.9688 7.5 11.9688 8.09375C11.9688 8.4375 11.8438 8.71875 11.5938 8.9375L3.5 15.8125C3.34375 15.9375 3.15625 16 2.9375 16C2.34375 16 1.90625 15.4375 2.0625 14.875L3.75 9H1.03125C0.46875 9 0 8.53125 0 7.96875C0 7.65625 0.125 7.375 0.34375 7.15625L8.46875 0.21875C8.625 0.09375 8.8125 0 9.03125 0ZM7.90625 2.65625L2.25 7.5H4.75C4.96875 7.5 5.1875 7.625 5.34375 7.8125C5.46875 8 5.53125 8.25 5.46875 8.46875L4.0625 13.375L9.78125 8.5H7.25C7 8.5 6.78125 8.40625 6.625 8.21875C6.5 8.03125 6.4375 7.78125 6.5 7.5625L7.90625 2.65625Z" fill="#342E51"/>
</svg>
