<svg width="18" height="16" viewBox="0 0 18 16" fill="none" xmlns="http://www.w3.org/2000/svg">
<path d="M11.5 4V6H12.5C13.5938 6 14.5 6.90625 14.5 8V14C14.5 15.125 13.5938 16 12.5 16H2.5C1.375 16 0.5 15.125 0.5 14V8C0.5 6.90625 1.375 6 2.5 6H10V4C10 1.8125 11.7812 0 14 0C16.1875 0 18 1.8125 18 4V6.25C18 6.6875 17.6562 7 17.25 7C16.8125 7 16.5 6.6875 16.5 6.25V4C16.5 2.625 15.375 1.5 14 1.5C12.5938 1.5 11.5 2.625 11.5 4ZM2.5 7.5C2.21875 7.5 2 7.75 2 8V14C2 14.2812 2.21875 14.5 2.5 14.5H12.5C12.75 14.5 13 14.2812 13 14V8C13 7.75 12.75 7.5 12.5 7.5H2.5Z" fill="#6C2DB6"/>
</svg>
