<svg width="77" height="77" viewBox="0 0 77 77" fill="none" xmlns="http://www.w3.org/2000/svg">
<path d="M48.3441 53.2584L45.6742 52.5138C44.3659 52.1628 43.515 51.6841 43.515 50.5247C43.515 49.3653 44.3127 48.6633 45.77 48.6633C47.2272 48.6633 48.0462 49.8227 48.1101 51.1204H52.7052C52.5882 47.5039 49.9502 44.5787 45.8019 44.5787C41.6535 44.5787 38.5795 46.8869 38.5795 51.0353C38.5795 54.2901 40.7707 55.9814 43.8766 56.8111L46.6316 57.5556C47.9612 57.9066 48.6419 58.6512 48.6419 59.7787C48.6419 61.0232 47.5463 62.055 46.004 62.055C44.0468 62.055 43.2171 60.8743 43.047 59.3639H38.2498C38.6008 63.4165 41.2706 66.1502 45.887 66.1502C49.6524 66.1502 53.588 63.6612 53.588 59.3639C53.588 55.8963 51.6309 54.1838 48.3441 53.2584Z" fill="#6C2DB6"/>
<path d="M45.9297 33.2826C52.3331 33.2826 56.9601 28.145 56.9601 22.2203C56.9601 16.2956 52.3331 11.1899 45.9297 11.1899C39.5264 11.1899 34.8674 16.3275 34.8674 22.2203C34.8674 28.1131 39.4944 33.2826 45.9297 33.2826ZM45.9297 16.4126C49.2909 16.4126 51.748 19.0505 51.748 22.2309C51.748 25.4113 49.2909 28.0705 45.9297 28.0705C42.5685 28.0705 40.0901 25.4113 40.0901 22.2309C40.0901 19.0505 42.5472 16.4126 45.9297 16.4126Z" fill="#6C2DB6"/>
<path d="M33.1122 30.8574H27.3577V36.2077H22.635L27.9853 20.8269H22.1563L14.7 41.0049V41.2602H27.3577V49.9717H33.1122V41.2602H58.9916V36.2077H33.1122V30.8574Z" fill="#6C2DB6"/>
<path d="M6.38208 6.38208H16.8061V0H0V76.3829H16.8061V70.0008H6.38208V6.38208Z" fill="#6C2DB6"/>
<path d="M59.9597 0V6.38208H70.3731V70.0008H59.9597V76.3829H76.7552V0H59.9597Z" fill="#6C2DB6"/>
</svg>
