<svg width="16" height="18" viewBox="0 0 16 18" fill="none" xmlns="http://www.w3.org/2000/svg">
<path d="M0 8C0 5.25 2.21875 3 5 3H10V2C10 1.625 10.2188 1.25 10.5938 1.09375C10.9688 0.9375 11.4062 1.03125 11.6875 1.3125L13.6875 3.3125C14.0938 3.6875 14.0938 4.34375 13.6875 4.71875L11.6875 6.71875C11.4062 7 10.9688 7.09375 10.5938 6.9375C10.2188 6.78125 10 6.40625 10 6V5H5C3.34375 5 2 6.34375 2 8C2 8.5625 1.53125 9 1 9C0.4375 9 0 8.5625 0 8ZM16 10C16 12.7812 13.75 15 11 15H6V16C6 16.4062 5.75 16.7812 5.375 16.9375C5 17.0938 4.5625 17 4.28125 16.7188L2.28125 14.7188C1.875 14.3438 1.875 13.6875 2.28125 13.3125L4.28125 11.3125C4.5625 11.0312 5 10.9375 5.375 11.0938C5.75 11.25 6 11.625 6 12V13H11C12.6562 13 14 11.6562 14 10C14 9.46875 14.4375 9 15 9C15.5312 9 16 9.46875 16 10Z" fill="#342E51"/>
</svg>
